<?xml version="1.0" encoding="UTF-8"?>
<svg id="Camada_2" data-name="Camada 2" xmlns="http://www.w3.org/2000/svg" viewBox="0 0 122.97 122.4">
  <defs>
    <style>
      .cls-1 {
        fill: #f2f2f1;
      }

      .cls-1, .cls-2 {
        stroke-width: 0px;
      }

      .cls-2 {
        fill: #af303d;
      }
    </style>
  </defs>
  <g id="Camada_1-2" data-name="Camada 1">
    <g>
      <path class="cls-1" d="m103.46,33.29s.01.01.02.02l-.04-.05.02.03Z"/>
      <path class="cls-1" d="m117.02,63.77c.04-.19.1-.43.12-.69.12-1.84.1-3.75-.02-5.53-.02-.3-.05-.59-.1-.85-.02-.11-.05-.17-.07-.19-.05-.04-.06.14-.04.52.03.99.06,2,.07,2.5,0,1.18-.02,1.85-.02,2.52,0,.33-.01.66-.02.99-.02.46.04.98.09.73Z"/>
      <polygon class="cls-1" points="115.98 50.46 116.02 50.49 115.95 50.2 115.98 50.46"/>
      <polygon class="cls-1" points="101.98 31.13 101.88 31.04 102.06 31.29 101.98 31.13"/>
      <path class="cls-1" d="m89.43,18.96s.03.02.04.04l.03.02s-.05-.04-.07-.06Z"/>
      <path class="cls-1" d="m89.2,18.78s.13.1.23.18c-.18-.17-.29-.24-.23-.18Z"/>
      <path class="cls-1" d="m89.78,19.23s-.13-.1-.23-.17c.21.18.31.25.23.17Z"/>
      <path class="cls-1" d="m89.47,19s.06.04.09.06c-.02-.02-.03-.03-.05-.05l-.04-.02Z"/>
      <path class="cls-1" d="m73.91,1.37C69.77.44,65.46.02,61.21,0h-1.11s-.55,0-.55,0l-.55.02c-.74.03-1.47.06-2.2.09-.73.05-1.46.12-2.19.18-.36.03-.73.05-1.09.1-.36.05-.72.09-1.08.14-.36.05-.72.1-1.07.14-.17.03-.35.05-.52.07-.17.03-.34.07-.5.1-.66.13-1.29.27-1.89.41-.15.04-.3.07-.44.11-.14.04-.29.08-.43.12-.28.08-.55.17-.81.26-.53.17-1.02.35-1.48.53-.18.07-.82.25-1.24.38l-1.47.26c-.49.09-.96.21-1.43.32-1.61.69-2.83,1.35-3.95,1.91-1.24.45-2.16.8-2.94,1.11-.76.34-1.37.62-1.98.93-.62.29-1.21.67-1.97,1.12-.38.23-.8.48-1.26.79-.46.32-.97.67-1.56,1.08-.72.48-1.43,1.03-2.15,1.57-.36.27-.73.53-1.08.81-.35.28-.7.57-1.05.85l-.73.6-.37.3-.35.31c-.47.42-.94.84-1.41,1.26-.48.41-.91.86-1.37,1.3-.45.44-.9.87-1.34,1.32-.43.46-.85.91-1.28,1.37l-.64.68-.61.71c-.4.48-.81.95-1.21,1.43-.4.48-.76.98-1.15,1.47-1.53,1.96-2.88,4.04-4.18,6.15-.31.53-.61,1.08-.91,1.62l-.45.81-.23.41-.21.42-.82,1.66c-.14.28-.28.55-.41.83l-.37.85-.74,1.7c-.24.57-.44,1.16-.66,1.73l-.33.87-.16.44-.14.44-.57,1.77c-.09.3-.19.59-.27.89l-.24.9-.47,1.8c-.14.61-.26,1.22-.39,1.83-.13.61-.27,1.22-.35,1.84l-.29,1.85-.07.46-.05.47-.1.93c-.06.62-.14,1.25-.18,1.87-.03.63-.07,1.25-.1,1.88-.01.31-.04.63-.04.94v.94c0,.63,0,1.26-.01,1.89.03.63.06,1.26.09,1.89l.05.95c.01.32.06.63.08.95.04.45.06.88.1,1.33l.08.86.12.85.25,1.71c.04.29.09.57.15.85l.16.85c.11.56.21,1.13.34,1.69l.41,1.68c.14.56.27,1.12.44,1.67.33,1.1.64,2.22,1.05,3.3.53,1.6,1.53,3.78,1.97,4.51.28.42.55.88.82,1.36.18.32.35.65.53.99.08.16.16.31.23.47.26.53.53,1.07.79,1.6.29.52.57,1.04.86,1.56.29.52.57,1.04.89,1.54.62,1.01,1.23,2.03,1.91,3,.34.49.67.98,1.01,1.47.36.47.72.95,1.08,1.42.24.31.47.63.71.93l.75.9.76.9c.13.15.25.3.38.45l.4.43c.54.57,1.07,1.15,1.62,1.72.57.55,1.14,1.09,1.71,1.64.02.02.05.04.07.07.04.04.07.07.11.11.02.02.04.03.06.04.3.28.6.54.91.81.39.34.77.67,1.16,1.01.38.34.79.65,1.18.97.4.32.79.64,1.19.96.28.24.58.45.88.67.3.22.6.44.9.65.98.72,2.02,1.35,3.04,2.01.5.34,1.04.63,1.56.93l1.57.9,1.61.83.81.41c.13.07.27.14.4.2l.41.19,1.65.75c.28.12.55.25.83.37l.84.33c3.45,1.38,7.06,2.46,10.73,3.17,2.76.52,5.54.91,8.33,1.09.27.02.55.04.83.06.28.02.56.04.84.04.56,0,1.13.01,1.69.02,5.06.05,10.13-.59,15.04-1.81.31-.08.62-.15.92-.23l.91-.26,1.82-.53,1.8-.61.9-.31c.3-.1.59-.23.89-.34l1.76-.7c.3-.11.58-.25.87-.38l.86-.39.86-.4.43-.2.42-.22,1.68-.88c.59-.3,1.15-.64,1.72-.95.28-.16.57-.32.85-.48.28-.16.57-.31.84-.49.63-.39,1.26-.78,1.89-1.17.32-.19.62-.41.93-.63.31-.22.61-.43.92-.65l.8-.57c.26-.2.52-.4.78-.61l1.55-1.22c.5-.42.99-.86,1.49-1.29l.74-.65c.25-.22.48-.45.71-.68l1.56-1.52,1.49-1.59c.51-.52.97-1.08,1.44-1.63l.71-.83.35-.42.33-.43,1.33-1.73c.23-.28.42-.59.64-.89l.62-.89.62-.9c.2-.3.39-.61.58-.92.38-.62.78-1.23,1.15-1.85.28-.49.55-.98.83-1.47.14-.25.27-.49.41-.74l.2-.37c.06-.13.12-.25.18-.38,1.76-3.49,3.25-7.15,4.33-10.91l.11-.37.1-.37.19-.74c.13-.5.25-.99.38-1.48.14-.49.22-1,.32-1.49.1-.5.19-1,.29-1.49.11-.53.18-1.08.26-1.64.08-.55.17-1.11.25-1.66.06-.34.09-.69.12-1.04l.11-1.04c.07-.7.15-1.39.17-2.09.03-.7.07-1.39.1-2.08.02-.69,0-1.38,0-2.07,0-.36,0-.73,0-1.1-.02-.37-.03-.75-.05-1.12-.03-.61-.06-1.21-.09-1.82-.05-.6-.12-1.2-.18-1.79-.03-.3-.06-.59-.1-.89l-.05-.44-.07-.44c-.09-.59-.19-1.17-.28-1.75l-.11-.67c-.04-.22-.09-.45-.14-.67l-.28-1.34-.14-.67-.07-.33-.09-.33c-.12-.44-.23-.88-.35-1.32-.07-.26-.14-.53-.21-.79-.07-.26-.14-.5-.22-.71-.21-.58-.43-1.17-.65-1.77-.11-.3-.21-.61-.34-.91-.12-.31-.25-.61-.38-.93-.25-.62-.49-1.21-.75-1.79-.27-.58-.54-1.16-.83-1.78-.1-.22-.2-.43-.3-.62-.1-.19-.21-.37-.31-.54-.75-1.28-.88-.98-.62-.02.22.72.47,1.65.8,2.67.09.29.2.6.31.92.1.33.21.67.34,1.02.3.85.61,1.7.85,2.57.1.33.18.68.26,1,.09.36.13.6.1.65-.03.05-.13-.16-.25-.57-.82-2.96-1.96-5.72-3.24-8.52-.58-1.33-1.29-2.51-1.94-3.61-.29-.48-.61-.93-.9-1.36-.07-.1-.14-.2-.2-.3-1.19-2.17.22-.38.31-.61-.75-1.38-1.46-2.48-2.17-3.57-5.02-7.22-11.4-13.24-18.71-17.8-.66-.44-1.36-.82-2.05-1.21-.7-.39-1.39-.8-2.12-1.14-.72-.35-1.45-.72-2.18-1.07-.75-.32-1.5-.64-2.25-.96-3.03-1.22-6.19-2.2-9.38-2.93Zm30.09,28.39c.16.17.33.39.51.65.19.27.32.49.36.61.04.12-.04.09-.21-.13-.16-.19-.34-.42-.51-.65-.2-.27-.32-.49-.35-.6-.03-.11.04-.07.21.11Zm.69,59.71c.77-1.03,1.15-1.54,1.54-2.12.18-.3.35-.62.57-1.03.11-.21.23-.44.37-.7.13-.27.3-.56.44-.92.05-.12.14-.28.2-.41.16-.3.28-.46.29-.38.01.11-.04.36-.15.67-.11.31-.26.68-.46,1.04-.88,1.65-1.84,3.24-2.94,4.7-.23.3-.47.5-.43.36.08-.27.35-.78.58-1.22Zm3.54-4.59c.18-.46.41-.98.68-1.52.07-.15.14-.29.21-.4.06-.12.11-.2.15-.26.09-.1.07.03-.03.31-.26.63-.57,1.29-.94,1.93-.05.08-.09.11-.13.16.02-.07.02-.12.06-.22Zm1.49-12.53c0-.11.04-.29.07-.53.08-.5.21-1,.28-1.09.03-.03.05-.04.05.02.02.3-.08.93-.24,1.46-.04.11-.08.17-.11.25-.04.05-.06,0-.06-.11Zm2.76-2.84c.02-.08.06-.13.06-.08,0,.18-.02.46-.1.7-.03.08-.05.07-.07.1.02-.21.04-.47.11-.72Zm.29,2.73c-.02.11-.05.22-.07.33-.1.41-.23.72-.32.85.13-.39.26-.78.39-1.17Zm-2.24-30.51c.2.35.37.75.54,1.17.03.12.06.24.09.37.22.82.36,1.72.58,2.76-.04-.11-.08-.21-.12-.31-.08-.34-.17-.7-.27-1.07-.15-.44-.29-.89-.44-1.33-.07-.22-.14-.44-.22-.66-.03-.11-.07-.22-.1-.33-.04-.11-.07-.21-.11-.32-.1-.31-.14-.48-.07-.45.03.01.08.08.13.18Zm1.66,18.41c.08.28.11.77.11,1.42,0,.23,0,.46,0,.69-.02.22-.04.44-.06.66-.04.43-.09.84-.15,1.22-.04.28-.09.38-.12.3-.04-.08-.05-.3-.05-.59,0-.35,0-.71.02-1.08,0-.18.01-.37.02-.56,0-.19,0-.38,0-.56,0-.29.02-.59.03-.88.03-.55.13-.87.2-.62Zm-4.94-24.75s.05.09.08.13c.02.04.04.08.06.12-.05-.09-.09-.17-.14-.26Zm-13.48-16.04s-.09-.11-.06-.09c.04.02.17.12.26.18l.07.1-.27-.19Zm-34.32-8.65c.5-.01,1,.04,1.49.07.49.04.97.07,1.45.13.99-.1,1.78-.18,2.44-.26.54-.04,1.1-.07,1.69-.09.29,0,.6-.02.91,0,.31.02.63.05.96.08.33.03.67.07,1.03.12.18.02.36.05.54.09.18.04.37.08.56.12.76.17,1.57.34,2.44.64.27.09.59.18.92.27.17.05.35.09.52.14.18.05.36.11.54.16.37.11.75.22,1.12.33.19.05.37.11.56.16.09.03.18.05.27.08.09.03.18.06.26.09l2.13.73,2.09.84c1.38.6,2.75,1.22,4.07,1.94,2.58,1.37,5.05,2.96,7.36,4.75.35.3.71.6,1.05.92.39.35.77.7,1.16,1.05.38.36.74.74,1.12,1.1.77.71,1.48,1.48,2.26,2.19.2.17.42.43.61.65.25.3.5.59.75.87.25.29.51.56.74.86.24.29.48.58.72.87l.36.43c.12.14.24.29.35.44.63.86,1.27,1.71,1.8,2.63.32.53.48.95.26.74-.16-.15-.35-.36-.52-.54l.46.71.25.38c.08.13.15.26.23.39l.91,1.57c.29.53.56,1.08.84,1.61.14.27.29.54.41.81l.38.83c.16.35.32.69.48,1.01.08.16.16.32.23.47.07.16.15.31.22.45.25.49.47,1.02.64,1.58.19.71.43,1.4.72,2.06.2.5.37.97.56,1.47.1.26.19.54.28.82.09.28.14.58.21.88.11.57.22,1.14.33,1.7.11.76.24,1.47.44,2.09.1.29.15.61.22.96.06.35.11.72.16,1.11.02.22.05.44.07.67.01.22.03.45.04.67.03.45.07.9.1,1.35l.03.34v.34s.03.68.03.68c.02.46.04.91.05,1.37,0,.46,0,.91-.01,1.37,0,.46,0,.91-.02,1.37l-.08,1.36c-.03.45-.03.91-.09,1.36-.08.75-.14,1.51-.25,2.26-.12.67-.23,1.35-.34,2.02-.05.34-.14.67-.21,1l-.23,1c-.06.27-.15.56-.22.75-.08.22-.13.2-.1-.03.06-.72.29-1.68.42-2.52.09-.78.09-1.25.03-1.5-.02-.1-.06-.15-.09-.2-.02-.03-.04-.02-.06-.03-.06-.02-.16.18-.27.52-.05.17-.11.38-.16.62-.06.24-.09.51-.16.79-.12.6-.25,1.18-.39,1.74-.03.14-.07.28-.1.41-.04.14-.08.27-.13.4-.09.27-.17.53-.26.78-.13.37-.26.77-.38,1.17-.08.26-.2.58-.27.84-.11.41-.22.81-.33,1.22-.06.2-.1.41-.16.6-.06.19-.13.39-.19.58-.41.65-.45.79-.73,1.82-.03.11-.06.2-.09.31-.16.5-.38.98-.63,1.35-.05.07-.09.13-.14.18-.18.24-.46.66-.74,1.21l-.61,1.19-.66,1.16-.33.58c-.11.19-.21.39-.34.58l-.7,1.14c-.08.13-.15.25-.22.38-.08.13-.15.26-.22.38-.07.12-.14.23-.2.33-.12.21-.22.39-.28.54-.05.14-.08.24-.13.37-.09.22-.31.59-.62.96-2.09,2.46-4.38,4.92-6.93,7.28-.44.4-.88.79-1.33,1.19-.47.37-.94.73-1.41,1.1-.4.33-.84.63-1.26.93-.43.3-.85.62-1.28.9-2.15,1.4-4.31,2.65-6.52,3.79-.77.38-1.1.6-1.14.75-.01.04-.12.12-.28.21-.15.09-.36.18-.56.25-.42.16-.85.34-1.25.49-.41.16-.82.27-1.23.39-.41.12-.82.24-1.22.36-.35.11-.71.18-1.06.28-.36.09-.71.19-1.07.29l-.54.15-.54.13c-.36.09-.73.18-1.09.28-.28.07-.56.16-.84.22-.28.07-.55.13-.82.2-.4.1-.76.2-1.1.31-.59.17-1.27.28-2.03.4-.29.05-.61.1-.83.14-.45.09-.92.16-1.41.21-.25.03-.5.05-.75.07-.26,0-.52,0-.8,0-.44,0-.89,0-1.35.03-.23.01-.45.01-.68.01-.23,0-.45,0-.67,0-.44,0-.89.02-1.34.03-.45-.01-.89-.03-1.34-.05-.45-.02-.9-.03-1.35-.07-.45-.04-.9-.09-1.35-.14-.23-.02-.45-.04-.68-.06-.11-.01-.22-.02-.33-.03-.11-.01-.22-.03-.33-.04-.44-.06-.87-.11-1.28-.14-.03,0-.07,0-.1,0l-1.28-.27c-.49-.11-.98-.19-1.46-.33-.96-.26-1.94-.49-2.88-.82-.48-.15-.95-.3-1.43-.46-.47-.18-.94-.35-1.41-.53-.95-.33-1.86-.76-2.79-1.15-.47-.19-.91-.43-1.37-.65-.45-.22-.91-.45-1.36-.67-.44-.25-.89-.5-1.33-.74-.44-.25-.9-.48-1.32-.77-.98-.43-1.89-.81-2.7-1.3-.41-.23-.81-.47-1.19-.71-.2-.12-.38-.25-.56-.38l-.55-.4c-.36-.27-.72-.55-1.08-.84-.35-.31-.69-.63-1.04-.97-.17-.17-.35-.34-.53-.52-.09-.09-.18-.18-.27-.27-.08-.1-.17-.19-.26-.29-.34-.39-.69-.8-1.05-1.23-.27-.31-.62-.72-1-1.16-.19-.21-.39-.44-.58-.66-.1-.11-.19-.22-.29-.33-.1-.11-.18-.23-.27-.34-.35-.26-.66-.49-.96-.71-.15-.11-.31-.23-.46-.34-.16-.12-.32-.24-.49-.38-.38-.62-.71-1.17-1.04-1.72-.31-.55-.6-1.11-.93-1.71-.16-.21-.33-.41-.48-.63l-.45-.65c-.3-.43-.62-.86-.91-1.3-.28-.45-.57-.9-.85-1.35-.14-.23-.29-.45-.42-.68l-.4-.7c-.26-.47-.54-.93-.79-1.4-.24-.48-.49-.96-.73-1.44-.12-.24-.25-.48-.36-.72l-.33-.74c-.22-.49-.45-.98-.65-1.48-.18-.47-.41-1.06-.53-1.46-.91-3.29-1.77-6.82-2.19-10.42-.44-3.6-.47-7.26.06-10.62.03-.22.06-.5.08-.79.02-.29.07-.59.1-.86.07-.58.14-1.17.22-1.75l.3-1.74c.09-.58.24-1.15.36-1.73l.2-.86c.03-.14.06-.29.1-.43l.12-.43.48-1.71c.17-.57.38-1.12.56-1.68l.29-.84c.1-.28.22-.55.33-.83l.67-1.65.75-1.62c.13-.27.24-.55.38-.81l.42-.79.42-.79c.14-.26.27-.53.43-.78.31-.51.61-1.02.92-1.54l.23-.39.25-.37.5-.74c.33-.5.66-1,1.03-1.47.36-.48.72-.96,1.08-1.44.38-.46.77-.92,1.15-1.38,1.7-1.98,3.53-3.86,5.52-5.57,1.99-1.7,4.1-3.26,6.32-4.66l1.68-1.02,1.73-.94c.14-.08.29-.16.43-.23l.44-.21.89-.43c.3-.14.59-.29.89-.42l.91-.38c2.41-1.03,4.9-1.9,7.45-2.52.56-.16,1.13-.27,1.7-.39.28-.06.56-.12.84-.17.14-.03.28-.06.42-.09.14-.02.28-.04.42-.06.55-.08,1.1-.16,1.64-.24.27-.04.54-.07.81-.09.27-.02.54-.04.8-.07,1.06-.11,2.1-.1,3.11-.11Zm41.54,80.31l-.05.13-.14.12.19-.25Zm-.22,1.36l-.14.22h-.05s.19-.22.19-.22Zm.72,2.57c-.25.33-.54.68-.85,1.04-.31.32-.64.56-.61.46.03-.1.08-.22.17-.38.08-.15.2-.33.32-.54.11-.17.28-.4.48-.64.1-.1.21-.23.29-.31.81-.78.92-.6.21.36Zm-4.07,3.2c-.08.07-.17.13-.26.2-.09.02,0-.11.28-.38.08-.07.21-.18.25-.19.11-.04,0,.1-.27.37Zm-5.63,5.24s-.01,0-.02.01c0,0,.01,0,.02-.01,0,0,0,0,0,0ZM2.53,60.13c0-.2,0-.39,0-.58s.02-.38.03-.57c.04-.76.06-1.5.05-2.24l.12.15c-.19,2.44-.22,4.9-.1,7.34,0-.11-.02-.21-.03-.32-.04-.45-.07-.9-.09-1.32-.01-.21-.02-.43-.01-.64,0-.21,0-.42,0-.62,0-.41.01-.81.02-1.2Zm77.65,49.64c-.07.03-.99.24-.92.19.11-.08.3-.18.52-.29.22-.11.47-.23.71-.38.59-.17.95-.27,1.31-.38-.53.28-1.03.57-1.63.86ZM7.83,51.87c0-.12.02-.24.04-.36.1-.16.2-.38.3-.6,0,0,0,0,0,0-.03.11-.05.22-.08.33-.06.24-.11.47-.15.71-.09.48-.17.96-.26,1.43.05-.5.1-1.01.14-1.51Zm1.02-3.72c.05-.19.1-.37.15-.56,0,0,0,.02,0,.02-.05.18-.1.36-.15.55,0,0,0,0,0-.01Zm1.65-5.73s-.02,0-.04.02c-.09.09-.18.2-.27.32.21-.51.43-1.02.67-1.54-.12.41-.24.8-.36,1.2Zm76.79,63.94c-.07.03-.15.06-.23.09.13-.07.25-.15.38-.22-.05.04-.1.09-.15.13ZM10.02,32.82c-.71,1.29-1.42,2.57-2.55,4.62,1.06-3.33,2.96-6.52,5-9.45-.14.27-.28.52-.41.77-.14.24-.24.49-.35.71-.22.46-.43.87-.62,1.26-.19.39-.39.74-.55,1.09-.17.35-.33.68-.51,1.01ZM31.19,10.69c.37-.22.76-.45,1.19-.7.21-.12.43-.26.67-.39.24-.13.49-.26.76-.4.53-.28,1.12-.6,1.79-.93-.62.37-1.16.73-1.66,1.03-.5.31-.95.56-1.37.83-.42.25-.82.48-1.22.67-.4.2-.81.36-1.22.54.34-.23.69-.43,1.06-.65Zm81.54,76.84c-.1.22-.22.43-.34.64l-.35.63-.71,1.26c-.11.21-.25.42-.38.62l-.39.61c-1.38,2.26-2.99,4.33-4.67,6.33-.29.33-.58.66-.87.99l-.43.5-.21.25-.22.24c-.6.63-1.18,1.28-1.77,1.91-.6.61-1.22,1.22-1.85,1.83-.65.58-1.32,1.15-1.99,1.73-.4.34-.83.65-1.24.98-.42.32-.83.64-1.25.94-1,.71-2.02,1.39-3.06,2.05-.44.09-.64,0-.84-.08-.15-.06-.27-.13-.58-.07-.32.05-.83.23-1.77.66-.69.33-1.22.52-1.57.64-.27.09-.44.12-.51.11.26-.14.52-.26.77-.41l.77-.45c.51-.3,1.03-.6,1.54-.91l1.5-.97c.25-.16.5-.32.75-.49l.5-.36s.04.09.01.18c-.11.35.37.34.92.21.24-.05.54-.17.91-.36.19-.09.39-.21.61-.34.22-.13.46-.27.7-.45.49-.35,1.04-.77,1.66-1.25.31-.24.62-.52.94-.81.32-.3.66-.61,1.01-.93-.02-.17.22-.55-.1-.4-1.09.54-2,.9-1.81.27.23-.21.47-.41.7-.62.41-.37.8-.76,1.2-1.14l.6-.58.3-.29c.1-.1.19-.2.29-.3,1.41-1.47,2.79-3.01,3.99-4.62.38-.51.77-1.01,1.14-1.52.36-.52.72-1.04,1.08-1.57.37-.51.7-1.06,1.03-1.6l.5-.81c.17-.27.34-.54.49-.82.57-1.04,1.18-2.06,1.69-3.14.26-.53.53-1.06.77-1.6.23-.54.46-1.09.69-1.63l.34-.82.3-.83c.2-.55.4-1.11.61-1.66.2-.56.36-1.12.54-1.69l.27-.85.13-.42.11-.43c.17-.66.34-1.31.51-1.97.09-.33.16-.66.22-.99.07-.33.13-.66.2-.99.06-.33.13-.66.19-.99.07-.33.1-.66.15-.99.09-.66.18-1.32.28-1.98.02-.16.02-.32.03-.46,0-.14,0-.3,0-.35-.03-.12-.08-.05-.13.22-.05.26-.11.57-.17.88l-.42,2.48c-.17.82-.34,1.64-.5,2.46-.14.65-.32,1.3-.48,1.95l-.26.97c-.1.32-.21.64-.32.96-.16.48-.32.96-.47,1.44l-.12.36-.13.35c-.09.24-.17.47-.26.71l-.37,1c-.12.34-.24.67-.39,1-.28.66-.56,1.31-.84,1.97-.07.17-.14.33-.22.49l-.24.48-.47.96c-.16.32-.31.65-.48.96l-.52.94-.46.83c-.15.28-.31.55-.48.82l-1,1.61-.25.4-.27.39-.54.78c-.36.52-.71,1.05-1.11,1.54-.38.53-.78,1.06-1.19,1.6-.42.52-.87,1.03-1.3,1.54-.22.25-.43.52-.66.76-.23.25-.46.49-.69.74-.23.25-.45.49-.68.74-.11.12-.22.25-.33.37-.12.12-.23.24-.35.35-.22.22-.48.47-.73.7-.51.48-1.03.95-1.56,1.4-.08.04-.16.08-.25.14-.68.42-1.14.6-1.39.64.09-.07.17-.14.26-.22l1.04-.91c.35-.3.7-.6,1.03-.92l1-.96.5-.48c.17-.16.32-.33.48-.5,2.44-2.52,4.68-5.27,6.52-8.22.41-.7.88-1.41,1.32-2.12l1.11-1.97c.19-.32.36-.66.52-1l.51-1.01c.16-.34.35-.67.5-1.01l.45-1.04c.3-.69.61-1.38.86-2.09.26-.71.54-1.4.77-2.11.22-.72.44-1.43.66-2.14.84-3.03,1.45-6.12,1.85-9.27.02-.16.03-.33.05-.49.06-.83.13-1.58.04-2.02-.04-.24-.08-.45-.12-.71-.03-.2-.02-.51.01-.85.01-.14.04-.28.06-.35.04-.15.09-.22.13-.37.09-.36.13-1.52.08-2.17-.02-.24-.03-.48-.06-.7-.03-.22-.06-.43-.1-.62-.07-.39-.14-.72-.21-.98-.04-.14-.09-.22-.12-.19-.08.05-.15.17-.23.29-.09.15-.16.44-.21.86-.03.21-.05.45-.07.72-.03.27-.06.57-.09.9-.04.42-.06.89-.06,1.4,0,.18,0,.34.01.47,0,.13.01.22.03.26.05.12.11.13.14.44.04.37-.02,1.4-.1,1.7-.04.17-.09.3-.14.43-.11.28-.2.66-.28,1.14-.04.24-.08.49-.11.77s-.06.57-.11.87l-.23,1.56-.11.78-.15.77c-.1.52-.2,1.03-.3,1.55l-.08.39-.1.38-.19.76c-.08.32-.16.63-.24.95-.08.31-.16.63-.26.94-.2.62-.4,1.23-.61,1.85-.05.16-.11.32-.16.47-.05.15-.1.29-.15.42-.09.27-.15.51-.19.72-.04.19-.08.4-.15.64-.1.33-.19.69-.35,1.05-.15.36-.32.73-.5,1.1-.14.28-.27.56-.4.8-.08.14-.15.29-.23.43-.08.14-.17.29-.25.43-.17.29-.33.59-.5.9-.17.31-.33.62-.5.95-.18.32-.36.64-.54.97-.24.43-.48.86-.72,1.27-.25.41-.53.79-.79,1.18-.23.33-.45.66-.67.99-.22.33-.47.65-.69.98-.46.65-.88,1.32-1.34,1.95-.31.44-.62.88-.96,1.33-.33.44-.71.86-1.08,1.3-.29.34-.54.65-.72.91-.2.25-.34.45-.4.6-.13.28-.34.63-.63,1.05-.15.21-.31.44-.51.68-.2.24-.42.49-.66.76-.23.26-.44.5-.66.75-.11.12-.23.25-.35.39-.13.13-.26.26-.41.4-.21.2-.51.44-.72.61-.02.01-.03.02-.05.03.17-.22.36-.47.58-.74.24-.29.51-.61.8-.95.29-.34.57-.72.88-1.1.82-.96,2.17-2.58,1.17-1.97-.19.21-.38.42-.57.63-.2.2-.41.4-.61.61-.42.41-.84.84-1.29,1.28-.47.42-.96.87-1.48,1.34-.13.12-.26.24-.4.36-.14.11-.28.23-.43.35-.29.24-.59.48-.9.73.03-.51-1.01.12-2.55,1.11,1.75-1.24,3.43-2.59,5.01-4.04l1.22-1.16c.2-.2.41-.38.61-.59l.58-.61c.39-.41.78-.81,1.16-1.22l1.11-1.26c.54-.58,1.02-1.24,1.5-1.87l.58-.77.54-.79.55-.79c.18-.27.37-.52.54-.8l1.02-1.63c.08-.14.17-.27.25-.41l.24-.42.47-.84c.58-.97,1.04-1.99,1.55-3l.18-.38.17-.39.33-.77.33-.77c.11-.26.23-.51.32-.78.42-1.13.89-2.23,1.24-3.38l.29-.86c.09-.29.2-.57.27-.86.16-.58.31-1.16.47-1.75.17-.58.28-1.17.41-1.76l.19-.88c.06-.3.13-.59.17-.89.1-.64.21-1.29.31-1.93.07-.3.13-.6.2-.9.45-2.34.8-4.74.92-7.16.14-2.05.13-4.1,0-6.16-.04-.51-.1-1.03-.16-1.54-.03-.26-.06-.52-.09-.77l-.05-.39-.07-.39c-.1-.51-.2-1.03-.31-1.55-.06-.26-.1-.52-.18-.78-.07-.26-.14-.51-.22-.77-.4-2.78-.94-4.9-1.55-7.08-.13-.43-.29-.9-.45-1.37-.08-.24-.15-.47-.23-.69-.07-.22-.16-.43-.22-.63-.27-.78-.4-1.3-.12-1.11.23.16.6.75,1.01,1.54.19.4.4.85.61,1.32.21.47.44.95.62,1.44.27.7.55,1.35.83,1.99.23.61.46,1.21.69,1.82.26.75.44,1.51.65,2.24.1.36.21.72.31,1.07.09.35.17.7.26,1.04.09.34.18.67.26.99.09.32.18.63.25.93.15.6.3,1.16.46,1.66.05.17.11.37.17.59.05.22.1.47.15.73.1.52.19,1.1.27,1.66.35,2.88.49,5.8.42,8.74-.1,2.94-.44,5.89-1.01,8.83-.15.71-.31,1.45-.49,2.2-.21.74-.43,1.5-.66,2.28-.11.39-.25.78-.38,1.18-.14.39-.28.8-.42,1.2-.27.82-.62,1.64-.96,2.49.27-.4.58-.84.85-1.24.07-.1.14-.2.2-.29.06-.09.12-.18.18-.27.05-.07.1-.14.14-.2-.71,1.89-1.48,3.77-2.39,5.58l-.64,1.3Zm-4.36.29s-.02-.04.01-.13c.13-.3.28-.53.38-.6.03-.02.03.04,0,.12-.14.3-.27.52-.38.61Zm3.54-6.08c0-.12.1-.35.23-.67.11-.26.22-.5.33-.73.12-.25.19-.35.22-.31.03.05-.18.63-.39,1.13-.2.44-.36.65-.38.58Zm2-7.53l.08-.27-.02.19-.06.08Zm1.18-2.66s0-.16.02-.28c.04-.29.11-.59.15-.89.1-.63.2-1.08.25-1.1.05-.01.03.4-.06.98-.02.15-.04.31-.08.47-.03.15-.07.3-.11.44-.09.33-.15.47-.17.38Zm1.74-21.56c-.46-1.5-1.03-3.36-1.67-5.04,0,0,0,.02.01.03-.05-.4-.21-1.29-.13-1.13.25.47.5.96.77,1.5.24.55.49,1.15.74,1.84.25.58.49,2.06.73,3.13-.15-.08-.26.26-.44-.33Zm-1.69,36.45c-.05.09-.13.18-.12.14.05-.19.2-.49.37-.8.05-.09.08-.11.12-.16-.06.23-.19.51-.37.82ZM98.02,15.69c.37.3.72.58,1.06.87.17.14.34.28.5.42.16.15.31.29.47.44.31.29.61.58.91.86.62.57,1.19,1.2,1.78,1.82.29.31.59.62.88.95.28.33.57.67.87,1.02,1.68,1.34,3.58,3.55,5.55,6.5.19.28.38.56.57.84.2.27.36.57.54.84.17.27.35.54.52.81.23.42.42.81.59,1.18.18.38.39.84.63,1.31.23.47.47.94.7,1.41.23.47.43.96.65,1.44.29.66.6,1.27.86,1.85.2.42.4.84.6,1.25.1.21.2.42.3.63s.18.43.27.65c.32.8.63,1.64.75,2.31.07.44.17.92.29,1.45.12.53.29,1.09.42,1.72.36,1.42.65,2.86.9,4.3-.09-.23-.19-.42-.29-.57-.11-.17-.21-.27-.31-.3-.12-.04-.37-.8-.63-1.38-.09-.57-.24-1.12-.35-1.66-.12-.54-.25-1.07-.37-1.59-.14-.52-.29-1.02-.43-1.53-.15-.51-.27-1.02-.46-1.51-.2-.58-.41-1.2-.63-1.8-.1-.3-.23-.59-.35-.87-.12-.28-.24-.55-.36-.81-.17-.36-.33-.72-.5-1.07-.17-.35-.36-.69-.54-1.04-.18-.34-.36-.68-.55-1.03l-.27-.51-.3-.5c-.4-.66-.78-1.33-1.19-1.99-.42-.65-.85-1.31-1.29-1.98-.4-.59-.94-1.35-1.41-2.08-.23-.37-.49-.71-.7-1.02-.21-.31-.39-.58-.52-.8-1.98-3.28-4.92-6.8-8.38-9.88-.37-.33-.7-.64-1.01-.95-.16-.16-.31-.31-.47-.47-.16-.15-.33-.3-.49-.45.43.29.81.59,1.18.89Zm-18.78-6.83c.47.18.94.36,1.4.54.46.18.89.4,1.32.59,2.33,1.05,4.52,2.17,6.87,3.52,3.79,2.23,7.2,5.01,10.26,8.09,1.95,2,3.7,4.13,5.35,6.39.64.91,1.29,1.81,1.84,2.73.28.46.56.9.82,1.34.24.45.48.89.7,1.32.46.84.79,1.67,1.08,2.39.14.36.27.7.35,1.02.08.32.15.62.19.88.03.22.24.76.49,1.37,0,0,0,0,0,.01-1.83-4.11-4.23-7.95-7.01-11.47-.1-.12-.2-.25-.3-.37-2.05-2.44-4.29-4.75-6.73-6.82-.96-.85-2-1.61-3-2.36-.72-.47-1.44-.96-2.16-1.46-.74-.46-1.49-.92-2.24-1.39-.63-.35-1.26-.7-1.88-1.04-.16-.08-.31-.17-.47-.25l-.48-.23c-.32-.15-.64-.3-.96-.45-.83-.41-1.73-.76-2.6-1.13-.22-.09-.44-.18-.65-.27-.22-.08-.44-.15-.65-.23-.52-.17-1-.32-1.41-.43-.2-.05-.39-.1-.55-.13-.17-.03-.31-.04-.43-.04-.36,0-.7,0-1.04,0-1.81-.52-3.61-.86-5.33-1.07-.35-.03-.79-.09-1.26-.17-.47-.07-.96-.17-1.42-.22-.4-.06-.8-.12-1.19-.17-.09-.01-.17-.03-.26-.04-.68-.09-1.36-.19-2.04-.28-.6-.07-1.21-.11-1.82-.17-.3-.03-.61-.06-.91-.08-.31-.01-.61-.02-.92-.03-.31-.01-.61-.02-.92-.03-.31,0-.62-.03-.93-.01-.62.02-1.24.04-1.87.05-.16,0-.31,0-.47.02l-.47.04-.93.08-.93.08c-.31.03-.62.08-.93.11-.62.08-1.23.15-1.85.24-.61.1-1.22.2-1.83.31-.45.06-.92.19-1.37.3-.29.07-.57.16-.85.24-.31.09-.51.17-.46.21.04.03.15.05.33.03.19-.02.5-.06.78-.13,1.12-.27,2.25-.42,3.38-.62.38-.06.77-.11,1.16-.15-6.61.99-13.04,3.26-18.77,6.69-.44.27-.9.52-1.33.81l-1.3.86c-.22.14-.44.28-.65.43l-.63.46-1.26.92c-.41.32-.81.65-1.21.98-.4.33-.81.64-1.19,1l-1.16,1.04-.29.26c-.09.09-.19.18-.28.27l-.55.55c-.37.37-.75.72-1.1,1.1l-1.05,1.15-.53.57-.5.6-1,1.2c-.17.2-.32.41-.48.62l-.47.62-.47.62c-.16.21-.32.41-.46.63l-.87,1.29-.44.65-.4.67-.54.9c-.18.3-.37.59-.53.9l-1,1.85-.13.23-.11.24-.23.47-.45.95-.23.47c-.08.16-.15.32-.22.48l-.4.97c-1.08,2.58-1.98,5.23-2.61,7.95-.07.29-.16.56-.22.85-.07.28-.14.57-.21.87-.08.29-.15.6-.23.91-.04.16-.08.32-.12.48-.03.17-.07.34-.1.51,0-.18,0-.34,0-.48,0-.14,0-.26,0-.37,0-.22.01-.41.05-.61.26-1.59.57-3.14.94-4.66.2-.55.47-1.22.7-1.96.34-1.13.79-2.22,1.21-3.33.1-.28.22-.55.34-.82l.36-.81c.24-.54.46-1.09.74-1.61.28-.56.57-1.13.85-1.69.3-.55.62-1.08.94-1.61l.27-.45c.09-.15.18-.3.28-.45l.57-.88c.19-.3.37-.59.56-.89.18-.3.39-.58.59-.88l.86-1.26c.29-.41.62-.81.93-1.21l.47-.6c.16-.2.31-.4.49-.59l1.02-1.14c.18-.2.35-.4.54-.6.19-.2.38-.39.57-.59.38-.39.76-.8,1.15-1.19.4-.38.8-.76,1.2-1.13.2-.19.4-.38.6-.56.21-.17.42-.35.62-.52.47-.38.87-.74,1.23-1.07.38-.32.71-.63,1.04-.94.08-.08.22-.2.34-.29.24-.18.51-.41.72-.52.44-.26.63-.27,1.19-.65.25-.17.51-.35.77-.52l.79-.5,1.19-.76c.4-.24.82-.47,1.22-.71.41-.23.81-.48,1.23-.69l1.26-.64.63-.32c.21-.11.43-.2.64-.3.43-.19.86-.39,1.28-.58.42-.2.86-.36,1.3-.53.44-.17.87-.33,1.31-.5.88-.3,1.6-.64,1.58-.79,0-.04-.21-.01-.5.07-.27.07-.56.16-.85.25-.29.09-.58.22-.88.33-2.51.94-4.94,2.11-7.26,3.45-1.8,1.01-3.48,2.15-5.16,3.31-.47.35-.94.71-1.41,1.07l-.7.54-.67.57c-.45.39-.91.76-1.34,1.16-.43.41-.86.82-1.29,1.22-2.03,1.99-3.88,4.15-5.61,6.38-.25.33-.52.78-.74,1.13-.15.24-.28.46-.41.69-.12.23-.24.46-.37.7-.12.22-.35.58-.48.76-.24.32-.49.62-.7.94-.22.32-.43.63-.66.95-.16.23-.31.46-.47.71-.08.12-.16.24-.23.37-.07.13-.14.26-.21.4-.04.07-.07.14-.11.21.6-1.22,1.27-2.43,2.01-3.63.15-.24.29-.49.45-.72.16-.23.33-.47.49-.7.33-.46.67-.93,1.01-1.41.37-.46.74-.92,1.13-1.4.19-.24.38-.49.59-.72.21-.24.42-.48.64-.72.3-.44.61-.91.94-1.37.35-.46.7-.93,1.07-1.42.36-.5.78-.98,1.2-1.49.43-.51.86-1.05,1.35-1.56-.52.41-1,.86-1.48,1.3-.48.44-.97.86-1.41,1.33-.45.45-.9.9-1.35,1.35-.43.45-.84.92-1.26,1.37-.21.22-.41.45-.62.67-.19.23-.39.46-.58.69-.39.45-.76.9-1.14,1.33-.35.45-.7.89-1.04,1.32-.34.43-.69.84-.99,1.27l.12-.51c.35-.49.69-.99,1.04-1.48l.52-.74c.18-.24.37-.47.56-.71.37-.47.74-.95,1.11-1.42.39-.46.79-.92,1.18-1.38,1.71-1.96,3.54-3.89,5.54-5.57.74-.68,1.55-1.27,2.34-1.9.39-.32.8-.6,1.21-.9l1.23-.88c.42-.28.84-.55,1.26-.82l.63-.41c.21-.14.42-.27.64-.39l1.3-.75.65-.38.67-.34c3.55-1.86,7.3-3.33,11.16-4.37.54-.14,1.09-.26,1.63-.39l.81-.19c.27-.06.55-.1.82-.16l1.64-.3c.55-.09,1.1-.15,1.65-.23,1.1-.17,2.21-.24,3.33-.36.28-.03.56-.04.84-.06.28-.02.56-.03.85-.05.57-.03,1.14-.08,1.71-.08.76-.01,1.34-.02,1.82-.03.24,0,.45,0,.66,0,.2,0,.39,0,.58,0,.76,0,1.51-.06,2.99-.06-.55-.06-1.08-.14-1.57-.18-.5-.04-.96-.07-1.4-.1-.44-.03-.85-.08-1.24-.09-.39-.01-.75-.03-1.09-.04-1.35-.07-2.3-.06-2.94-.11-.64-.05-.97-.13-1.07-.24-.1-.11.01-.29.28-.5.34-.04.68-.11,1.02-.13l1.14-.06h.28s.29-.02.29-.02h.57s1.14,0,1.14,0h.57c.19,0,.38.01.57.02.76.04,1.52.06,2.28.11l2.27.21c3.02.35,6.01.96,8.92,1.8.97.3,1.96.58,2.9.96Zm-7.74-5.2c.48.15,1.02.32,1.64.5-.57-.06-1.13-.12-1.69-.19-.28-.03-.55-.08-.82-.1-.27-.03-.54-.05-.81-.08-.54-.05-1.07-.11-1.59-.17-.52-.06-1.05-.08-1.56-.13-.51-.04-1.03-.09-1.53-.13-.51-.03-1.01-.05-1.52-.08-.25-.01-.5-.03-.75-.04-.25-.02-.5-.03-.75-.03-.5,0-1-.02-1.5-.03-3.92-.05-7.87.31-11.67,1.01-.3.04-.57.1-.84.15-.27.05-.53.09-.78.13-.51.08-1,.14-1.52.23.09-.08.19-.16.29-.24.86-.22,1.74-.47,2.61-.69.88-.19,1.74-.37,2.56-.51,3.12-.46,6.22-.64,9.35-.62.39,0,.79.01,1.18.02h.59c.2.01.39.03.59.04.79.05,1.58.09,2.38.14.8.08,1.6.15,2.41.23.2.01.41.04.61.07.2.03.41.05.61.08.41.05.82.11,1.23.16.19.02.39.06.6.11.21.05.44.12.68.19Z"/>
      <path class="cls-1" d="m32.2,16.7c-.35.24-.67.45-.96.67-.29.22-.57.43-.85.65.4-.21.76-.43,1.13-.65.37-.21.73-.42,1.08-.66.35-.23.7-.5,1.06-.78.37-.27.74-.57,1.14-.92-.54.34-1.02.63-1.45.9-.42.29-.8.55-1.14.79Z"/>
    </g>
    <g>
      <path class="cls-2" d="m31.41,61.3c.17.19.35.23.77.16.46-.08.58-.05.72.2.19.34,1.12.61,2.6.74.54.05,1.06.13,1.16.17.33.15,1.38.02,1.73-.2.26-.17.4-.18.59-.05.14.09.23.25.2.34-.03.1.23.29.58.44.48.2,1.04.27,2.45.27,1,0,2.08,0,2.4,0,.46,0,.58-.05.58-.25,0-.23.01-.23.16.01.18.3.29.3,7.04.17,1.98-.04,5.77-.1,8.4-.14,2.78-.04,4.97-.13,5.22-.23.24-.09.45-.1.49-.02.07.14,2.07.42,2.48.35.12-.02.32.03.44.11.16.11.26.09.37-.07.11-.16.21-.18.38-.07.16.1.31.1.46,0,.22-.15,2.53-.32,2.63-.19.09.11,6.69.13,7.09.02.21-.06.42-.07.46-.02.12.15.83.19.97.05.07-.08.67-.14,1.32-.14s1.23-.04,1.3-.09c.06-.05.53-.13,1.04-.17.51-.04.97-.09,1.02-.1.05-.01.25.03.44.1.21.07.43.06.56-.04.11-.09.72-.18,1.35-.21.69-.03,1.39-.16,1.76-.32.33-.15.81-.27,1.05-.27.41,0,.45-.04.51-.5.03-.27.01-.56-.05-.64-.16-.22-.13-.39.06-.39.1,0,.2-.09.23-.19.1-.31.09-.34-.22-.88-.17-.29-.3-.59-.3-.69,0-.24-.6-.91-1.1-1.23-.23-.15-.6-.43-.8-.63-.4-.38-1.1-.48-1.5-.21-.17.11-.28.06-.51-.24-.27-.36-.27-.4-.08-.54.28-.19.16-.44-.21-.44-.16,0-.32-.1-.35-.23-.09-.3-.44-.29-.8.02-.23.2-.33.22-.51.08-.12-.1-.32-.18-.44-.18s-.5-.28-.86-.61c-.64-.61-.65-.61-1.08-.38-.24.13-.61.23-.82.23-.21,0-.68.1-1.05.23-.37.12-1.14.23-1.72.23-.62,0-1.26.1-1.57.23-.28.13-.77.23-1.09.23-.41,0-.68.1-.97.37-.36.33-.53.37-1.82.4-.78.02-1.84.02-2.34,0-.5-.02-1.02-.03-1.16-.03-.13,0-1.11.04-2.16.08-1.12.04-2.53,0-3.39-.11-.81-.1-1.72-.14-2.03-.08-.31.06-.66.07-.78.03-.12-.04-.3,0-.39.1-.11.12-.26.13-.47.03-.81-.39-7.02-.5-8.34-.16-.43.11-1.07.14-1.68.08-1.49-.15-4.7-.12-6.33.06-.8.09-1.9.16-2.44.15-.54,0-1.11-.01-1.28-.01-.17,0-.7,0-1.19.01-.94,0-3.71.36-4.72.6-.33.08-.91.14-1.28.14-.78,0-1.34.23-1.34.56,0,.13-.11.23-.24.23s-.24.1-.24.23-.22.42-.48.65c-.27.23-.48.51-.49.63,0,.12-.09.29-.2.39-.11.1-.21.4-.21.67,0,.27-.06.48-.11.48-.17,0-.09.41.13.66Zm47.16.56c.52,0,.61.06.29.21-.3.15-.78.11-.78-.06,0-.08.22-.15.49-.15Zm-11.14.3c.04-.08.15-.14.25-.14.2,0,.24.24.05.38-.16.12-.39-.06-.3-.24Zm-1.51-.08c.14-.18.26-.2.41-.1.2.14.2.15,0,.25-.11.06-.3.1-.41.1-.18,0-.18-.02,0-.25Zm-4.41-.06c.27,0,.49.07.49.15s-.19.15-.42.15-.45-.07-.49-.15c-.05-.09.12-.15.42-.15Zm-1.03.15c.13-.07.28-.14.34-.14.05,0,.09.06.09.14s-.15.15-.34.14c-.3,0-.31-.03-.09-.14Zm-13.48.18c.18-.03.26.03.26.19s-.11.24-.31.24c-.38,0-.34-.36.05-.43Zm-6.54-.09c.18.14.13.35-.13.52-.3.2-.7.2-.8,0-.08-.17.76-.66.92-.53Z"/>
      <path class="cls-2" d="m50.37,84.62c.06.14.12.17.25.11.15-.06.19-.03.24.15.06.25.37.44.85.53.18.04.35.09.38.12.11.11.45.02.57-.15.08-.12.13-.13.19-.04.05.07.08.18.07.25,0,.07.08.21.19.32.16.15.34.19.8.19.33,0,.68,0,.79,0,.15,0,.19-.03.19-.18,0-.17,0-.17.05,0,.06.22.1.22,2.31.12.65-.03,1.89-.07,2.75-.1.91-.03,1.63-.1,1.71-.16.08-.06.15-.07.16-.02.02.1.68.3.81.25.04-.01.11.02.15.08.05.08.09.06.12-.05.04-.12.07-.13.12-.05.05.08.1.08.15,0,.07-.11.83-.23.86-.14.03.08,2.19.09,2.32.01.07-.04.14-.05.15-.02.04.11.27.14.32.03.02-.06.22-.1.43-.1s.4-.03.43-.06c.02-.04.17-.09.34-.12.17-.03.32-.06.33-.07.02-.01.08.02.15.07.07.05.14.04.18-.03.04-.06.24-.13.44-.15.23-.02.46-.11.58-.23.11-.11.26-.19.34-.19.13,0,.15-.03.17-.36.01-.2,0-.4-.02-.46-.05-.15-.04-.28.02-.28.03,0,.07-.06.08-.14.03-.22.03-.24-.07-.63-.05-.2-.1-.43-.1-.49,0-.18-.2-.65-.36-.88-.08-.11-.2-.31-.26-.45-.13-.27-.36-.34-.49-.15-.06.08-.09.04-.17-.17-.09-.26-.09-.29-.02-.39.09-.14.05-.31-.07-.31-.05,0-.1-.07-.12-.16-.03-.22-.14-.21-.26.02-.07.14-.11.15-.17.05-.04-.07-.11-.13-.14-.13s-.17-.2-.28-.44c-.21-.44-.21-.44-.35-.27-.08.09-.2.16-.27.17-.07,0-.22.07-.34.16-.12.09-.37.16-.56.16-.2,0-.41.07-.51.17-.09.09-.25.16-.36.16-.13,0-.22.07-.32.26-.12.24-.17.26-.6.29-.26.01-.6.01-.77,0-.16-.02-.34-.02-.38-.02-.04,0-.36.03-.71.06-.37.03-.83,0-1.11-.08-.27-.07-.56-.1-.67-.06-.1.04-.22.05-.26.02-.04-.03-.1,0-.13.07-.04.08-.09.09-.15.02-.26-.28-2.3-.36-2.73-.11-.14.08-.35.1-.55.06-.49-.11-1.54-.09-2.07.05-.26.06-.62.11-.8.11-.18,0-.36,0-.42,0-.05,0-.23,0-.39,0-.31,0-1.21.26-1.55.43-.11.06-.3.1-.42.1-.26,0-.44.16-.44.4,0,.09-.03.17-.08.17s-.08.07-.08.17-.07.3-.16.47c-.09.17-.16.37-.16.45,0,.08-.03.21-.07.28-.04.07-.07.29-.07.48,0,.19-.02.35-.03.35-.06,0-.03.3.04.48Zm15.45.4c.17,0,.2.05.1.15-.1.1-.26.08-.26-.04,0-.06.07-.11.16-.11Zm-3.65.21c.01-.06.05-.1.08-.1.07,0,.08.17.02.27-.05.09-.13-.04-.1-.17Zm-.49-.06c.05-.13.08-.15.13-.07.06.1.06.11,0,.18-.04.04-.1.07-.13.07-.06,0-.06-.01,0-.18Zm-1.45-.04c.09,0,.16.05.16.11s-.06.11-.14.11-.15-.05-.16-.11c-.01-.07.04-.11.14-.11Zm-.34.11c.04-.05.09-.1.11-.1.02,0,.03.04.03.1s-.05.11-.11.1c-.1,0-.1-.02-.03-.1Zm-4.42.13c.06-.02.09.02.09.14s-.04.17-.1.17c-.13,0-.11-.26.02-.31Zm-2.14-.07c.06.1.04.25-.04.37-.1.14-.23.15-.26,0-.03-.12.25-.47.3-.38Z"/>
      <g>
        <path class="cls-2" d="m32.66,54.8c.22.14.41.12.79-.07.42-.21.54-.21.75-.01.29.27,1.25.26,2.71-.05.53-.11,1.05-.19,1.16-.17.36.05,1.33-.38,1.6-.7.2-.24.33-.29.55-.22.16.05.29.17.29.27,0,.1.31.21.68.25.52.05,1.08-.05,2.42-.45.96-.29,1.99-.6,2.3-.69.44-.13.54-.21.48-.41-.07-.22-.05-.23.15-.03.26.24.37.21,6.79-1.89,1.89-.62,5.49-1.78,8-2.58,2.65-.85,4.72-1.57,4.92-1.73.2-.15.4-.23.46-.16.1.11,2.1-.2,2.48-.38.11-.05.32-.06.46-.02.19.06.28,0,.33-.18.06-.19.15-.23.34-.17.18.06.32.01.44-.13.17-.21,2.32-1.04,2.46-.95.12.08,6.44-1.82,6.79-2.04.19-.12.38-.19.43-.15.16.11.85-.06.94-.24.05-.1.6-.33,1.22-.52s1.17-.4,1.22-.46c.05-.07.47-.27.95-.46.47-.19.9-.36.94-.39.04-.03.25-.04.45-.03.22,0,.43-.07.52-.2.08-.12.64-.38,1.23-.59.65-.23,1.29-.56,1.59-.82.28-.24.69-.49.93-.57.39-.12.42-.17.34-.62-.05-.27-.15-.54-.23-.6-.22-.16-.24-.33-.05-.39.09-.03.17-.14.17-.25,0-.33,0-.35-.47-.78-.24-.22-.46-.48-.49-.57-.07-.23-.84-.7-1.41-.86-.27-.07-.7-.24-.95-.37-.49-.25-1.2-.14-1.5.23-.13.16-.26.14-.56-.08-.36-.27-.38-.3-.23-.49.21-.26.02-.47-.33-.36-.15.05-.33,0-.41-.12-.18-.26-.51-.15-.76.26-.16.26-.26.3-.47.22-.15-.06-.36-.08-.47-.04s-.56-.12-1-.34c-.79-.4-.79-.4-1.14-.05-.19.19-.52.4-.72.46-.2.06-.62.3-.94.52-.32.23-1.03.55-1.58.72-.59.18-1.18.46-1.43.68-.24.2-.67.44-.97.54-.39.12-.62.3-.82.63-.25.42-.4.51-1.63.91-.74.24-1.75.55-2.24.67-.49.13-.99.26-1.12.31-.13.04-1.05.36-2.04.71-1.06.37-2.42.73-3.27.88-.8.14-1.69.37-1.97.51-.28.14-.61.26-.74.26-.13,0-.29.09-.35.21-.07.15-.22.2-.44.16-.88-.13-6.86,1.56-8.03,2.27-.38.23-.99.45-1.58.57-1.47.29-4.53,1.25-6.04,1.9-.74.32-1.77.7-2.29.85-.52.15-1.07.31-1.23.36-.16.05-.67.21-1.13.36-.89.28-3.44,1.42-4.34,1.95-.3.17-.83.4-1.18.51-.75.22-1.22.61-1.12.92.04.13-.03.25-.17.29s-.2.17-.17.29-.09.46-.27.76c-.19.3-.31.63-.28.75.03.11,0,.31-.08.44-.08.13-.08.44-.01.7.07.26.09.48.04.49-.17.05.03.42.32.6Zm45.28-13.17c.5-.15.6-.12.34.12-.25.23-.72.33-.77.17-.02-.08.17-.21.42-.29Zm-10.57,3.52c.01-.09.1-.18.19-.21.19-.06.3.16.16.35-.12.17-.39.06-.36-.14Zm-1.46.36c.08-.21.18-.27.36-.21.23.07.23.09.07.23-.09.09-.25.18-.36.21-.17.05-.18.03-.07-.23Zm-4.24,1.23c.26-.08.49-.08.52,0s-.14.2-.36.27-.45.07-.52,0c-.07-.08.07-.18.36-.27Zm-.94.44c.11-.11.23-.21.28-.23.05-.02.1.03.13.11s-.1.19-.28.23c-.29.08-.3.06-.13-.11Zm-12.85,4.09c.16-.08.26-.05.31.11s-.04.26-.23.32c-.37.11-.43-.25-.08-.43Zm-6.29,1.81c.21.08.22.3.03.53-.23.28-.61.4-.76.24-.13-.14.54-.85.73-.78Z"/>
        <path class="cls-2" d="m77.51,32.48c.12-.03.18-.09.13-.12-.05-.04-.16-.01-.23.06-.08.07-.04.1.1.07Z"/>
      </g>
      <path class="cls-2" d="m30.77,38.12c.17.19.35.23.77.16.46-.08.58-.05.72.2.19.34,1.12.61,2.6.74.54.05,1.06.13,1.16.17.33.15,1.38.02,1.73-.2.26-.17.4-.18.59-.05.14.09.23.25.2.34-.03.1.23-.25.58-.1.48.2,1.04-.81,2.45-.81,1,0,2.08,0,2.4,0,.46,0,.58-.05.58-.25,0-.23.01-.23.16.01.18.3.29.3,7.04.17,1.98-.04,5.77-.1,8.4-.14,2.78-.04,4.97-.13,5.22-.23.24-.09.45-.1.49-.02.07.14,2.07.42,2.48.35.12-.02.32.03.44.11.16.11.26.09.37-.07.11-.16.21-.18.38-.07.16.1.31.1.46,0,.22-.15,2.53-.32,2.63-.19.09.11,6.69.13,7.09.02.21-.06.42-.07.46-.02.12.15.83.19.97.05.07-.08.67-.14,1.32-.14s1.23-.04,1.3-.09c.06-.05.53-.13,1.04-.17.51-.04.97-.09,1.02-.1.05-.01.25.03.44.1.21.07.43.06.56-.04.11-.09.72-.18,1.35-.21.69-.03,1.39-.16,1.76-.32.33-.15.81-.27,1.05-.27.41,0,.45-.04.51-.5.03-.27.01-.56-.05-.64-.16-.22-.13-.39.06-.39.1,0,.2-.09.23-.19.1-.31.09-.34-.22-.88-.17-.29-.3-.59-.3-.69,0-.24-.6-.91-1.1-1.23-.23-.15-.6-.43-.8-.63-.4-.38-1.1-.48-1.5-.21-.17.11-.28.06-.51-.24-.27-.36-.81.68-.61.54.28-.19.16-.44-.21-.44-.16,0-.32-.1-.35-.23-.09-.3-.44-.29-.8.02-.23.2-.33.22-.51.08-.12-.1-.32-.18-.44-.18s-.5-.28-.86-.61c-.64-.61-.65-.61-1.08-.38-.24.13-.61.23-.82.23-.21,0-.68.1-1.05.23-.37.12-1.14.23-1.72.23-.62,0-1.26.1-1.57.23-.28.13-.24-.31-.55-.31-.41,0-.68.1-.97.37-.36.33-.53-.17-1.82-.14-.78.02-1.84.02-2.34,0-.5-.02-1.02-.03-1.16-.03-.13,0-1.11.04-2.16.08-1.12.04-2.53,0-3.39-.11-.81-.1-1.72-.14-2.03-.08-.31.06-.66.07-.78.03-.12-.04-.3,0-.39.1-.11.12-.26.13-.47.03-.81-.39-7.02-.5-8.34-.16-.43.11-1.07.14-1.68.08-1.49-.15-4.7-.12-6.33.06-.8.09-1.9.16-2.44.15-.54,0-1.11-.01-1.28-.01-.17,0-.7,0-1.19.01-.94,0-3.71.36-4.72.6-.33.08-.91.14-1.28.14-.78,0-1.34.23-1.34.56,0,.13-.11.23-.24.23s-.24.1-.24.23-.22.42-.48.65c-.27.23-.48.51-.49.63,0,.12-.09.29-.2.39-.11.1-.21.4-.21.67,0,.27-.06.48-.11.48-.17,0-.09,2.02.13,2.28Zm47.16-1.05c.52,0,.61.06.29.21-.3.15-.78.11-.78-.06,0-.08.22-.15.49-.15Zm-11.14.3c.04-.08.15-.14.25-.14.2,0,.24.24.05.38-.16.12-.39-.06-.3-.24Zm-1.51-.08c.14-.18.26-.2.41-.1.2.14.2.15,0,.25-.11.06-.3.1-.41.1-.18,0-.18-.02,0-.25Zm-4.41-.06c.27,0,.49.07.49.15s-.19.15-.42.15-.45-.07-.49-.15c-.05-.09.12-.15.42-.15Zm-1.03.15c.13-.07.28-.14.34-.14.05,0,.09.06.09.14s-.15.15-.34.14c-.3,0-.31-.03-.09-.14Zm-13.48.18c.18-.03.26.03.26.19s-.11.24-.31.24c-.38,0-.34-.36.05-.43Zm-6.54.98c.18.14.13.35-.13.52-.3.2-.7.2-.8,0-.08-.17.76-.66.92-.53Z"/>
      <g>
        <path class="cls-2" d="m84.51,91.95s.14-.14.36-.25c.22-.11.43-.28.46-.38.04-.1.14-.22.24-.27.1-.05.24-.28.31-.51.07-.23.22-.46.33-.51s.15-.15.09-.22-.02-.17.09-.22c.28-.13.22-.52-.13-.92-.17-.19-.37-.51-.45-.72-.25-.62-1.19-2.2-1.6-2.68-.21-.25-.45-.53-.52-.62-.07-.09-.33-.38-.58-.66-.25-.27-.68-.87-.96-1.32-.57-.92-1.97-2.59-2.77-3.3-.32-.29-.58-.63-.68-.9-.3-.82-3.17-3.98-3.85-4.24-.18-.07-.24-.15-.19-.26.04-.09,0-.2-.09-.24-.09-.05-.23-.24-.32-.42-.09-.18-.53-.64-.97-1.02-.47-.4-1.14-1.11-1.6-1.7-.44-.56-.84-1.08-.89-1.15-.06-.07-.3-.33-.54-.59-.24-.25-.71-.79-1.05-1.21-.55-.68-.59-.78-.48-1.1.1-.26.06-.44-.12-.65-.14-.16-.27-.46-.29-.66-.02-.21-.23-.58-.5-.9-.26-.3-.52-.74-.58-.98-.06-.24-.18-.53-.28-.64-.09-.11-.17-.34-.17-.52,0-.32,0-.32-.8-.4-.44-.05-.84-.13-.9-.19s-.21-.13-.34-.16c-.2-.03-.23-.1-.16-.3.11-.31-.04-.5-.34-.42-.12.03-.28,0-.35-.09-.16-.19-.42-.15-.46.07-.03.16-.06.17-.49.18-.35,0-.45-.03-.43-.16.05-.31-.35-.64-.85-.69-.26-.03-.66-.1-.89-.16-.49-.13-1.31-.17-1.52-.07-.08.04-.4.09-.71.12-.59.06-.62.06-.84.24-.07.06-.1.15-.06.2.09.1-.05.19-.3.19-.09,0-.34.11-.56.24-.36.22-.37.25-.19.46.11.13.22.42.24.65.03.25.23.67.51,1.04.26.34.45.69.43.78-.03.1.06.22.22.3.14.07.27.16.28.19.01.03.18.29.37.57.19.28.34.55.32.61-.01.05.21.37.5.71s.5.67.47.74c-.06.13.29.48.47.48.05,0,.14.11.18.24.09.25,3.04,3.66,3.18,3.66.15,0,1.03,1.26,1.01,1.44-.02.12.05.2.21.24.17.04.2.1.11.22-.09.12-.06.18.1.22.12.03.26.11.29.18.13.24,1.26,1.16,1.4,1.14.08-.01.17.1.2.26.03.16.93,1.33,2.13,2.79,1.14,1.38,2.77,3.36,3.62,4.4,2.89,3.55,2.95,3.6,3.28,3.57.27-.03.28-.02.08.08-.17.08-.16.16.05.4.14.16.63.72,1.07,1.24.62.72.93.99,1.31,1.15.28.12.56.17.63.12.07-.05.24-.07.38-.03.19.05.24.12.22.33-.03.27.33.87.6.98.08.03.38.27.66.53.78.71,1.41,1.08,1.78,1.04.27-.03.35.02.49.29.13.25.24.33.48.34.31.01.69-.11.62-.2Zm-22-23.62c-.14.07-.39-.16-.4-.38-.01-.22.08-.2.31.07.12.14.16.28.09.31Zm4.29,5.5c.04-.15.26-.23.34-.13.04.05.04.13-.01.18-.11.12-.37.08-.33-.06Zm.87.9c-.05-.06-.09-.17-.1-.25,0-.14,0-.14.21-.1.16.03.18.1.1.25-.11.19-.13.19-.21.1Zm2.28,2.44c-.09.01-.25-.07-.35-.19s-.13-.24-.06-.28.23.05.35.19c.13.15.16.26.06.28Zm.11.33c-.09-.09-.1-.2-.03-.23s.14-.04.16-.01c.02.03.03.13.03.23,0,.16-.02.16-.16.01Zm5.67,7.23c-.09-.11-.07-.2.06-.26s.23-.05.28.06c.11.23-.17.4-.34.2Zm3.3,3.83c-.21.03-.38-.18-.35-.42.03-.2.19-.31.38-.28.18.03.15.67-.03.69Z"/>
        <path class="cls-2" d="m68.88,63.24c-.06-.06-.06-.12,0-.12.06,0,.11.05.11.12,0,.07-.04.07-.11,0Z"/>
      </g>
      <g>
        <path class="cls-2" d="m37.6,92.27c.24,0,.35-.09.48-.34.14-.27.22-.32.49-.29.37.04,1.01-.33,1.78-1.04.28-.26.58-.49.66-.53.27-.11.64-.71.6-.98-.03-.2.03-.28.22-.33.14-.03.31-.02.38.03.07.05.35,0,.63-.12.39-.17.69-.43,1.31-1.15.45-.52.93-1.07,1.07-1.24.21-.24.22-.32.05-.4-.2-.1-.19-.1.08-.08.33.03.39-.03,3.28-3.57.85-1.04,2.48-3.02,3.62-4.4,1.21-1.45,2.1-2.62,2.13-2.79.03-.16.12-.27.2-.26.14.02,1.27-.9,1.4-1.14.04-.07.17-.15.29-.18.16-.04.19-.1.1-.22-.09-.12-.06-.18.11-.22.16-.04.22-.12.21-.24-.03-.18.86-1.44,1.01-1.44.13,0,3.09-3.4,3.18-3.66.05-.13.13-.24.18-.24.18,0,.53-.35.47-.48-.03-.07.18-.4.47-.74s.52-.65.5-.71c-.01-.05.13-.33.32-.61.19-.28.36-.54.37-.57.01-.03.14-.12.28-.19.16-.08.24-.2.22-.3-.02-.09.17-.45.43-.78.28-.37.49-.78.51-1.04.02-.23.13-.53.24-.65.18-.21.17-.25-.19-.46-.21-.13-.47-.24-.56-.24-.25,0-.39-.09-.3-.19.04-.05.02-.14-.06-.2-.22-.18-.24-.19-.84-.24-.31-.03-.64-.09-.71-.12-.2-.1-1.03-.06-1.52.07-.23.06-.63.13-.89.16-.5.05-.89.38-.85.69.02.13-.08.17-.43.16-.42,0-.46-.02-.49-.18-.04-.22-.3-.26-.46-.07-.07.08-.23.12-.35.09-.29-.08-.44.11-.34.42.07.2.03.26-.16.3-.14.02-.29.09-.34.16s-.46.15-.9.19c-.79.08-.8.08-.8.4,0,.18-.08.41-.17.52-.09.11-.22.39-.28.64-.06.24-.32.68-.58.98-.27.32-.48.69-.5.9-.02.2-.15.49-.29.66-.18.21-.22.39-.12.65.12.32.07.42-.48,1.1-.33.41-.8.95-1.05,1.21-.24.25-.48.51-.54.59-.06.07-.46.59-.89,1.15-.46.6-1.13,1.31-1.6,1.7-.45.38-.89.83-.97,1.02-.09.18-.23.37-.32.42-.09.05-.13.16-.09.24.05.11-.01.19-.19.26-.68.26-3.55,3.42-3.85,4.24-.1.27-.36.61-.68.9-.79.71-2.19,2.38-2.77,3.3-.28.45-.72,1.05-.96,1.32-.25.27-.51.57-.58.66-.07.09-.3.37-.52.62-.41.49-1.35,2.06-1.6,2.68-.08.2-.29.53-.45.72-.35.4-.41.79-.13.92.11.05.15.15.09.22s-.02.17.09.22.26.28.33.51c.08.23.22.46.31.51.1.05.21.17.24.27.04.1.25.27.46.38.22.11.38.23.36.25-.08.09.3.22.62.2Zm21.47-24.14c.23-.27.32-.29.31-.07-.01.22-.26.45-.4.38-.07-.03-.03-.18.09-.31Zm-4.71,5.88c-.05-.05-.05-.14-.01-.18.09-.1.31-.02.34.13.03.13-.22.18-.33.06Zm-.74.74c-.09-.15-.06-.22.1-.25.2-.05.22-.04.21.1,0,.08-.05.19-.1.25-.08.09-.1.09-.21-.1Zm-2.02,2.26c.12-.14.28-.23.35-.19s.04.16-.06.28-.26.21-.35.19c-.1-.01-.07-.12.06-.28Zm-.33.59c0-.1.01-.2.03-.23.02-.03.09-.02.16.01s.06.14-.03.23c-.14.15-.16.15-.16-.01Zm-5.85,7.04c.05-.1.14-.12.28-.06s.15.15.06.26c-.17.2-.45.03-.34-.2Zm-2.99,3.34c.19-.04.35.08.38.28.03.23-.14.45-.35.42-.18-.03-.21-.66-.03-.69Z"/>
        <path class="cls-2" d="m52.61,63.35c.06-.06.06-.12,0-.12-.06,0-.11.05-.11.12,0,.07.04.07.11,0Z"/>
      </g>
    </g>
  </g>
</svg>